<svg width="289" height="80" fill="none" xmlns="http://www.w3.org/2000/svg"><mask id="a" maskUnits="userSpaceOnUse" x="173.5" y="71.234" width="115" height="7" fill="#000"><path fill="#fff" d="M173.5 71.234h115v7h-115z"/><path d="M182.871 72.15h.714l-2.21 5.084h-.947l-1.786-4.377-1.786 4.377h-.947l-2.21-5.084h.715l1.977 4.61 1.894-4.61h.731l1.877 4.61 1.978-4.61zm7.454 0v.582h-4.935v1.661h3.863v.59h-3.863v1.67h4.935v.581h-5.608V72.15h5.608zm3.019 2.8-.59-.59h3.996c.265 0 .462-.058.589-.174.133-.122.2-.322.2-.599v-.066c0-.277-.067-.476-.2-.598-.127-.122-.324-.183-.589-.183h-4.295v4.494h-.673V72.15h5.067c.189 0 .363.028.524.083.166.056.31.136.432.241.127.1.227.222.299.366.072.144.108.307.108.49v.415c0 .1-.02.197-.058.291a1.05 1.05 0 0 1-.142.266 1.183 1.183 0 0 1-.216.224.836.836 0 0 1-.274.133c.2.061.363.18.49.357a.88.88 0 0 1 .2.549v.473c0 .16-.028.316-.083.465-.05.144-.131.272-.241.382a1.276 1.276 0 0 1-.424.258c-.172.06-.377.091-.615.091h-3.505l-.59-.59h3.996c.265 0 .462-.06.589-.182.133-.122.2-.321.2-.598v-.133c0-.277-.067-.477-.2-.598-.127-.122-.324-.183-.589-.183h-3.406zm12.686 2.284-.59-.59h4.004a.82.82 0 0 0 .673-.307c.172-.205.258-.457.258-.756v-1.778c0-.299-.086-.55-.258-.755a.82.82 0 0 0-.673-.308h-4.353v4.494h-.672V72.15h5.025c.222 0 .43.042.624.125.193.083.362.197.506.34.144.139.258.302.341.49.088.189.133.391.133.607v1.969c0 .216-.045.418-.133.606a1.628 1.628 0 0 1-.341.499c-.144.138-.313.249-.506.332a1.666 1.666 0 0 1-.624.116h-3.414zm12.034-5.084v.582h-4.934v1.661h3.863v.59h-3.863v1.67h4.934v.581h-5.607V72.15h5.607zm4.54 4.66h.033l2.857-4.66h.74l-3.14 5.084h-.947l-3.14-5.084h.739l2.858 4.66zm10.295-4.66v.582h-4.934v1.661h3.863v.59h-3.863v1.67h4.934v.581h-5.607V72.15h5.607zm2.131 0v4.495h5.001v.59h-5.674V72.15h.673zm7.659 5.084c-.222 0-.43-.038-.624-.116a1.807 1.807 0 0 1-.515-.332 1.625 1.625 0 0 1-.34-.499 1.486 1.486 0 0 1-.125-.606v-1.969a1.526 1.526 0 0 1 .465-1.097c.15-.143.322-.257.515-.34a1.57 1.57 0 0 1 .624-.125h3.497a1.602 1.602 0 0 1 1.13.465c.144.139.257.302.34.49a1.4 1.4 0 0 1 .133.607v1.969a1.4 1.4 0 0 1-.133.606 1.625 1.625 0 0 1-.34.499c-.144.138-.313.249-.507.332a1.665 1.665 0 0 1-.623.116h-3.497zm0-4.494a.846.846 0 0 0-.682.308 1.162 1.162 0 0 0-.249.755v1.778c0 .3.083.551.249.756a.846.846 0 0 0 .682.308h3.497a.822.822 0 0 0 .673-.308 1.14 1.14 0 0 0 .257-.756v-1.778c0-.299-.086-.55-.257-.755a.822.822 0 0 0-.673-.308h-3.497zm11.62 2.185c.266 0 .463-.058.59-.174.133-.122.199-.322.199-.599v-.631c0-.277-.066-.476-.199-.598-.127-.122-.324-.183-.59-.183h-4.436v4.494h-.673V72.15h5.209c.183 0 .354.036.515.108.166.067.31.16.432.283.127.116.227.255.299.415.077.155.116.321.116.499v.747c0 .194-.039.371-.116.532a1.342 1.342 0 0 1-1.246.78h-3.655l-.59-.589h4.145zm10.4-2.775v5.084h-.673v-4.477l-2.899 4.477h-.424l-2.899-4.477v4.477h-.673V72.15h.98l2.808 4.328 2.8-4.328h.98zm7.181 0v.582h-4.935v1.661h3.863v.59h-3.863v1.67h4.935v.581h-5.607V72.15h5.607zm7.987 0v5.084h-.773l-5.084-4.37v4.37h-.673V72.15h.765l5.092 4.378V72.15h.673zm7.538 0v.59h-2.841v4.494h-.673V72.74h-2.891v-.59h6.405z"/></mask><path d="M182.871 72.15h.714l-2.21 5.084h-.947l-1.786-4.377-1.786 4.377h-.947l-2.21-5.084h.715l1.977 4.61 1.894-4.61h.731l1.877 4.61 1.978-4.61zm7.454 0v.582h-4.935v1.661h3.863v.59h-3.863v1.67h4.935v.581h-5.608V72.15h5.608zm3.019 2.8-.59-.59h3.996c.265 0 .462-.058.589-.174.133-.122.2-.322.2-.599v-.066c0-.277-.067-.476-.2-.598-.127-.122-.324-.183-.589-.183h-4.295v4.494h-.673V72.15h5.067c.189 0 .363.028.524.083.166.056.31.136.432.241.127.1.227.222.299.366.072.144.108.307.108.49v.415c0 .1-.02.197-.058.291a1.05 1.05 0 0 1-.142.266 1.183 1.183 0 0 1-.216.224.836.836 0 0 1-.274.133c.2.061.363.18.49.357a.88.88 0 0 1 .2.549v.473c0 .16-.028.316-.083.465-.05.144-.131.272-.241.382a1.276 1.276 0 0 1-.424.258c-.172.06-.377.091-.615.091h-3.505l-.59-.59h3.996c.265 0 .462-.06.589-.182.133-.122.2-.321.2-.598v-.133c0-.277-.067-.477-.2-.598-.127-.122-.324-.183-.589-.183h-3.406zm12.686 2.284-.59-.59h4.004a.82.82 0 0 0 .673-.307c.172-.205.258-.457.258-.756v-1.778c0-.299-.086-.55-.258-.755a.82.82 0 0 0-.673-.308h-4.353v4.494h-.672V72.15h5.025c.222 0 .43.042.624.125.193.083.362.197.506.34.144.139.258.302.341.49.088.189.133.391.133.607v1.969c0 .216-.045.418-.133.606a1.628 1.628 0 0 1-.341.499c-.144.138-.313.249-.506.332a1.666 1.666 0 0 1-.624.116h-3.414zm12.034-5.084v.582h-4.934v1.661h3.863v.59h-3.863v1.67h4.934v.581h-5.607V72.15h5.607zm4.54 4.66h.033l2.857-4.66h.74l-3.14 5.084h-.947l-3.14-5.084h.739l2.858 4.66zm10.295-4.66v.582h-4.934v1.661h3.863v.59h-3.863v1.67h4.934v.581h-5.607V72.15h5.607zm2.131 0v4.495h5.001v.59h-5.674V72.15h.673zm7.659 5.084c-.222 0-.43-.038-.624-.116a1.807 1.807 0 0 1-.515-.332 1.625 1.625 0 0 1-.34-.499 1.486 1.486 0 0 1-.125-.606v-1.969a1.526 1.526 0 0 1 .465-1.097c.15-.143.322-.257.515-.34a1.57 1.57 0 0 1 .624-.125h3.497a1.602 1.602 0 0 1 1.13.465c.144.139.257.302.34.49a1.4 1.4 0 0 1 .133.607v1.969a1.4 1.4 0 0 1-.133.606 1.625 1.625 0 0 1-.34.499c-.144.138-.313.249-.507.332a1.665 1.665 0 0 1-.623.116h-3.497zm0-4.494a.846.846 0 0 0-.682.308 1.162 1.162 0 0 0-.249.755v1.778c0 .3.083.551.249.756a.846.846 0 0 0 .682.308h3.497a.822.822 0 0 0 .673-.308 1.14 1.14 0 0 0 .257-.756v-1.778c0-.299-.086-.55-.257-.755a.822.822 0 0 0-.673-.308h-3.497zm11.62 2.185c.266 0 .463-.058.59-.174.133-.122.199-.322.199-.599v-.631c0-.277-.066-.476-.199-.598-.127-.122-.324-.183-.59-.183h-4.436v4.494h-.673V72.15h5.209c.183 0 .354.036.515.108.166.067.31.16.432.283.127.116.227.255.299.415.077.155.116.321.116.499v.747c0 .194-.039.371-.116.532a1.342 1.342 0 0 1-1.246.78h-3.655l-.59-.589h4.145zm10.4-2.775v5.084h-.673v-4.477l-2.899 4.477h-.424l-2.899-4.477v4.477h-.673V72.15h.98l2.808 4.328 2.8-4.328h.98zm7.181 0v.582h-4.935v1.661h3.863v.59h-3.863v1.67h4.935v.581h-5.607V72.15h5.607zm7.987 0v5.084h-.773l-5.084-4.37v4.37h-.673V72.15h.765l5.092 4.378V72.15h.673zm7.538 0v.59h-2.841v4.494h-.673V72.74h-2.891v-.59h6.405z" fill="#fff"/><path d="M182.871 72.15v-.096h-.064l-.025.058.089.038zm.714 0 .088.039.058-.135h-.146v.096zm-2.21 5.084v.096h.063l.025-.057-.088-.039zm-.947 0-.089.037.025.06h.064v-.097zm-1.786-4.377.089-.037-.089-.218-.089.218.089.037zm-1.786 4.377v.096h.065l.024-.06-.089-.036zm-.947 0-.088.039.025.057h.063v-.096zm-2.21-5.084v-.096h-.146l.058.135.088-.039zm.715 0 .088-.038-.025-.058h-.063v.096zm1.977 4.61-.088.039.09.21.087-.212-.089-.036zm1.894-4.61v-.096h-.064l-.025.06.089.036zm.731 0 .089-.036-.024-.06h-.065v.096zm1.877 4.61-.088.037.086.213.091-.211-.089-.038zm1.978-4.514h.714v-.192h-.714v.192zm.626-.134-2.21 5.084.176.077 2.21-5.084-.176-.077zm-2.122 5.026h-.947v.192h.947v-.192zm-.858.06-1.786-4.378-.178.073 1.786 4.378.178-.073zm-1.964-4.378-1.786 4.378.178.073 1.786-4.378-.178-.073zm-1.697 4.318h-.947v.192h.947v-.192zm-.859.058-2.21-5.084-.176.077 2.21 5.084.176-.077zm-2.298-4.95h.715v-.192h-.715v.192zm.627-.058 1.977 4.61.176-.075-1.977-4.61-.176.075zm2.154 4.61 1.894-4.611-.178-.073-1.894 4.61.178.073zm1.805-4.552h.731v-.192h-.731v.192zm.642-.06 1.878 4.611.177-.072-1.877-4.61-.178.072zm2.055 4.613 1.977-4.61-.177-.076-1.977 4.61.177.076zm9.343-4.649h.096v-.096h-.096v.096zm0 .582v.096h.096v-.096h-.096zm-4.935 0v-.096h-.096v.096h.096zm0 1.661h-.096v.096h.096v-.096zm3.863 0h.096v-.096h-.096v.096zm0 .59v.096h.096v-.096h-.096zm-3.863 0v-.096h-.096v.096h.096zm0 1.67h-.096v.096h.096v-.096zm4.935 0h.096v-.096h-.096v.096zm0 .581v.096h.096v-.096h-.096zm-5.608 0h-.096v.096h.096v-.096zm0-5.084v-.096h-.096v.096h.096zm5.512 0v.582h.192v-.582h-.192zm.096.486h-4.935v.192h4.935v-.192zm-5.031.096v1.661h.192v-1.661h-.192zm.096 1.757h3.863v-.192h-3.863v.192zm3.767-.096v.59h.192v-.59h-.192zm.096.494h-3.863v.192h3.863v-.192zm-3.959.096v1.67h.192v-1.67h-.192zm.096 1.766h4.935v-.192h-4.935v.192zm4.839-.096v.581h.192v-.581h-.192zm.096.485h-5.608v.192h5.608v-.192zm-5.512.096V72.15h-.192v5.084h.192zm-.096-4.988h5.608v-.192h-5.608v.192zm8.627 2.704-.068.068.028.028h.04v-.096zm-.59-.59v-.096h-.232l.164.164.068-.068zm4.585-.174.065.07-.065-.07zm0-1.263-.066.07h.002l.064-.07zm-4.884-.183v-.096h-.096v.096h.096zm0 4.494v.096h.096v-.096h-.096zm-.673 0h-.096v.096h.096v-.096zm0-5.084v-.096h-.096v.096h.096zm5.591.083-.032.091h.001l.031-.09zm.432.241-.063.073.003.003.06-.076zm.299.366.086-.043-.086.043zm.05 1.196-.089-.037-.002.005.091.032zm-.142.266-.077-.057.077.057zm-.216.224.057.078.003-.003-.06-.075zm-.274.133-.026-.092-.317.088.315.096.028-.092zm.49.357-.078.056.002.003.076-.059zm.117 1.487-.09-.033-.001.002.091.031zm-.241.382.066.07.002-.002-.068-.068zm-.424.258.032.09h.003l-.035-.09zm-4.12.091-.068.068.028.028h.04v-.096zm-.59-.59v-.095h-.232l.164.163.068-.067zm4.585-.182-.064-.071-.002.001.066.07zm0-1.33-.066.07.002.001.064-.07zm-3.928-.25-.589-.59-.136.136.59.59.135-.136zm-.657-.426h3.996v-.192h-3.996v.192zm3.996 0c.277 0 .502-.06.654-.2l-.129-.141c-.103.093-.271.15-.525.15v.191zm.654-.2c.162-.147.231-.379.231-.668h-.192c0 .264-.064.431-.168.527l.129.141zm.231-.668v-.067h-.192v.067h.192zm0-.067c0-.29-.069-.521-.231-.669l-.129.142c.104.096.168.263.168.527h.192zm-.229-.668c-.153-.145-.378-.209-.656-.209v.192c.253 0 .421.058.523.156l.133-.139zm-.656-.209h-4.295v.192h4.295v-.192zm-4.391.096v4.494h.192V72.74h-.192zm.096 4.398h-.673v.192h.673v-.192zm-.577.096V72.15h-.192v5.084h.192zm-.096-4.988h5.067v-.192h-5.067v.192zm5.067 0c.179 0 .343.027.492.078l.063-.181a1.694 1.694 0 0 0-.555-.089v.192zm.493.079c.156.051.288.126.4.222l.125-.145a1.357 1.357 0 0 0-.464-.26l-.061.183zm.403.225a.964.964 0 0 1 .273.333l.172-.086a1.171 1.171 0 0 0-.326-.398l-.119.15zm.273.333a.992.992 0 0 1 .098.447h.192c0-.196-.039-.374-.118-.533l-.172.086zm.098.447v.415h.192v-.415h-.192zm0 .415a.663.663 0 0 1-.051.254l.177.074a.843.843 0 0 0 .066-.328h-.192zm-.053.26a.946.946 0 0 1-.128.24l.155.114c.066-.09.118-.188.154-.291l-.181-.064zm-.128.24a1.088 1.088 0 0 1-.199.206l.12.15c.09-.071.168-.152.234-.242l-.155-.114zm-.195.204a.748.748 0 0 1-.244.118l.052.185a.93.93 0 0 0 .305-.148l-.113-.155zm-.246.302c.178.054.325.16.44.321l.156-.112a1.018 1.018 0 0 0-.54-.393l-.056.184zm.442.324c.122.157.18.32.18.49h.192a.979.979 0 0 0-.22-.607l-.152.117zm.18.49v.473h.192v-.473h-.192zm0 .473c0 .15-.026.293-.077.432l.18.067c.059-.16.089-.327.089-.499h-.192zm-.078.434a.897.897 0 0 1-.218.346l.136.135c.12-.12.209-.26.263-.418l-.181-.063zm-.216.344c-.1.095-.23.175-.393.237l.07.18c.181-.07.333-.163.455-.278l-.132-.14zm-.39.236a1.747 1.747 0 0 1-.583.086v.192c.246 0 .462-.031.647-.096l-.064-.181zm-.583.086h-3.505v.192h3.505v-.192zm-3.438.028-.589-.59-.136.136.59.59.135-.136zm-.657-.425h3.996v-.192h-3.996v.191zm3.996 0c.278 0 .503-.064.656-.21l-.133-.139c-.102.098-.27.157-.523.157v.191zm.654-.208c.162-.148.231-.38.231-.67h-.192c0 .265-.064.432-.168.528l.129.142zm.231-.67v-.132h-.192v.133h.192zm0-.132c0-.29-.069-.521-.231-.67l-.129.142c.104.096.168.263.168.528h.192zm-.229-.668c-.153-.146-.378-.21-.656-.21v.193c.253 0 .421.058.523.156l.133-.139zm-.656-.21h-3.406v.193h3.406v-.192zm9.28 2.381-.068.068.028.028h.04v-.096zm-.59-.59v-.095h-.231l.164.163.067-.067zm4.677-.307-.073-.062-.001.002.074.06zm0-3.29-.074.061.001.001.073-.061zm-5.026-.307v-.096h-.096v.096h.096zm0 4.494v.096h.096v-.096h-.096zm-.672 0h-.096v.096h.096v-.096zm0-5.084v-.096h-.096v.096h.096zm5.649.125-.038.088.038-.088zm.506.34-.068.068.002.002.066-.07zm.341.49-.088.04.001.002.087-.041zm0 3.182-.087-.04-.001.002.088.038zm-.341.499.067.069.001-.001-.068-.068zm-.506.332.035.09.002-.002-.037-.088zm-3.97.049-.59-.59-.135.135.589.59.136-.136zm-.658-.427h4.004v-.191h-4.004v.191zm4.004 0c.31 0 .562-.113.748-.342l-.149-.121a.727.727 0 0 1-.599.272v.191zm.747-.341c.188-.224.28-.499.28-.818h-.192c0 .28-.08.509-.235.694l.147.124zm.28-.818v-1.778h-.192v1.778h.192zm0-1.778c0-.318-.092-.593-.28-.817l-.147.123c.155.186.235.415.235.695h.192zm-.279-.816a.917.917 0 0 0-.748-.343v.192c.256 0 .452.091.599.272l.149-.12zm-.748-.343h-4.353v.192h4.353v-.192zm-4.449.096v4.494h.192V72.74h-.192zm.096 4.398h-.672v.192h.672v-.192zm-.576.096V72.15h-.192v5.084h.192zm-.096-4.988h5.025v-.192h-5.025v.192zm5.025 0c.21 0 .404.04.586.117l.075-.176a1.66 1.66 0 0 0-.661-.133v.192zm.586.117c.183.079.341.185.476.32l.136-.135a1.693 1.693 0 0 0-.537-.361l-.075.176zm.478.322c.134.13.241.282.319.46l.176-.078a1.628 1.628 0 0 0-.362-.52l-.133.138zm.32.462c.082.175.124.363.124.565h.192a1.5 1.5 0 0 0-.142-.647l-.174.082zm.124.565v1.969h.192v-1.969h-.192zm0 1.969c0 .202-.042.39-.124.566l.174.081a1.5 1.5 0 0 0 .142-.647h-.192zm-.125.568a1.518 1.518 0 0 1-.321.469l.136.136a1.72 1.72 0 0 0 .361-.528l-.176-.077zm-.319.468c-.135.13-.294.234-.478.313l.075.176c.204-.087.383-.204.536-.351l-.133-.138zm-.476.312c-.182.073-.377.11-.588.11v.191c.233 0 .453-.04.659-.123l-.071-.178zm-.588.11h-3.414v.191h3.414v-.192zm8.62-4.989h.096v-.096h-.096v.096zm0 .582v.096h.096v-.096h-.096zm-4.934 0v-.096h-.096v.096h.096zm0 1.661h-.096v.096h.096v-.096zm3.863 0h.096v-.096h-.096v.096zm0 .59v.096h.096v-.096h-.096zm-3.863 0v-.096h-.096v.096h.096zm0 1.67h-.096v.096h.096v-.096zm4.934 0h.096v-.096h-.096v.096zm0 .581v.096h.096v-.096h-.096zm-5.607 0h-.096v.096h.096v-.096zm0-5.084v-.096h-.096v.096h.096zm5.511 0v.582h.192v-.582h-.192zm.096.486h-4.934v.192h4.934v-.192zm-5.03.096v1.661h.192v-1.661h-.192zm.096 1.757h3.863v-.192h-3.863v.192zm3.767-.096v.59h.192v-.59h-.192zm.096.494h-3.863v.192h3.863v-.192zm-3.959.096v1.67h.192v-1.67h-.192zm.096 1.766h4.934v-.192h-4.934v.192zm4.838-.096v.581h.192v-.581h-.192zm.096.485h-5.607v.192h5.607v-.192zm-5.511.096V72.15h-.192v5.084h.192zm-.096-4.988h5.607v-.192h-5.607v.192zm10.147 4.565-.082.05.028.046h.054v-.096zm.033 0v.096h.054l.028-.046-.082-.05zm2.857-4.66v-.097h-.053l-.028.046.081.05zm.74 0 .081.05.091-.147h-.172v.096zm-3.14 5.083v.096h.053l.028-.045-.081-.05zm-.947 0-.082.05.028.046h.054v-.096zm-3.14-5.084v-.096h-.173l.091.147.082-.05zm.739 0 .082-.05-.028-.046h-.054v.096zm2.858 4.757h.033v-.192h-.033v.192zm.115-.046 2.857-4.66-.163-.1-2.858 4.66.164.1zm2.775-4.615h.74v-.192h-.74v.192zm.658-.146-3.14 5.084.163.1 3.14-5.083-.163-.101zm-3.058 5.038h-.947v.192h.947v-.192zm-.866.046-3.14-5.084-.163.1 3.14 5.085.163-.101zm-3.221-4.938h.739v-.192h-.739v.192zm.657-.045 2.858 4.66.163-.1-2.857-4.66-.164.1zm13.235-.05h.096v-.097h-.096v.096zm0 .58v.097h.096v-.096h-.096zm-4.934 0v-.095h-.096v.096h.096zm0 1.662h-.096v.096h.096v-.096zm3.863 0h.096v-.096h-.096v.096zm0 .59v.096h.096v-.096h-.096zm-3.863 0v-.096h-.096v.096h.096zm0 1.67h-.096v.096h.096v-.096zm4.934 0h.096v-.096h-.096v.096zm0 .581v.096h.096v-.096h-.096zm-5.607 0h-.096v.096h.096v-.096zm0-5.084v-.096h-.096v.096h.096zm5.511 0v.582h.192v-.582h-.192zm.096.486h-4.934v.192h4.934v-.192zm-5.03.096v1.661h.192v-1.661h-.192zm.096 1.757h3.863v-.192h-3.863v.192zm3.767-.096v.59h.192v-.59h-.192zm.096.494h-3.863v.192h3.863v-.192zm-3.959.096v1.67h.192v-1.67h-.192zm.096 1.766h4.934v-.192h-4.934v.192zm4.838-.096v.581h.192v-.581h-.192zm.096.485h-5.607v.192h5.607v-.192zm-5.511.096V72.15h-.192v5.084h.192zm-.096-4.988h5.607v-.192h-5.607v.192zm7.738-.096h.096v-.096h-.096v.096zm0 4.495h-.096v.096h.096v-.096zm5.001 0h.096v-.096h-.096v.096zm0 .59v.095h.096v-.096h-.096zm-5.674 0h-.096v.095h.096v-.096zm0-5.085v-.096h-.096v.096h.096zm.577 0v4.495h.192V72.15h-.192zm.096 4.59h5.001v-.191h-5.001v.191zm4.905-.095v.59h.192v-.59h-.192zm.096.493h-5.674v.192h5.674v-.192zm-5.578.096V72.15h-.192v5.084h.192zm-.096-4.988h.673v-.192h-.673v.192zm7.708 4.872-.037.088.002.001.035-.089zm-.515-.332-.067.068.002.002.065-.07zm-.34-.499.088-.038-.088.038zm0-3.181.088.038-.088-.038zm.34-.49.067.069-.067-.07zm.515-.341.038.088-.038-.088zm4.744 0-.038.088.038-.088zm.507.34-.068.068.001.002.067-.07zm.34.49-.088.04.001.002.087-.041zm0 3.182-.087-.04-.001.002.088.038zm-.34.499.066.069.002-.001-.068-.068zm-.507.332.036.09.002-.002-.038-.088zm-4.802-4.07-.073-.062-.001.001.074.06zm0 3.29-.074.06h.001l.073-.06zm4.852 0-.074-.063-.001.002.075.06zm0-3.29-.075.06.001.001.074-.061zm-4.17 4.09c-.211 0-.406-.036-.588-.109l-.071.178c.206.083.426.123.659.123v-.192zm-.586-.108a1.688 1.688 0 0 1-.487-.315l-.131.141c.158.146.339.263.543.35l.075-.176zm-.485-.312a1.532 1.532 0 0 1-.32-.47l-.176.078c.088.2.208.375.361.528l.135-.136zm-.32-.47a1.38 1.38 0 0 1-.117-.567h-.192c0 .229.044.444.133.645l.176-.077zm-.117-.567v-1.969h-.192v1.969h.192zm0-1.969c0-.203.039-.392.117-.568l-.176-.077a1.577 1.577 0 0 0-.133.645h.192zm.117-.568c.078-.177.184-.33.319-.46l-.133-.138a1.628 1.628 0 0 0-.362.52l.176.078zm.319-.46a1.61 1.61 0 0 1 .486-.32l-.075-.177a1.791 1.791 0 0 0-.544.36l.133.138zm.486-.32c.182-.079.376-.118.586-.118v-.192a1.66 1.66 0 0 0-.661.133l.075.176zm.586-.118h3.497v-.192h-3.497v.192zm3.497 0c.209 0 .404.04.585.117l.076-.176a1.664 1.664 0 0 0-.661-.133v.192zm.585.117c.183.079.342.185.477.32l.136-.135a1.704 1.704 0 0 0-.537-.361l-.076.176zm.478.322c.135.13.241.282.319.46l.176-.078a1.628 1.628 0 0 0-.362-.52l-.133.138zm.32.462c.083.175.124.363.124.565h.192a1.5 1.5 0 0 0-.142-.647l-.174.082zm.124.565v1.969h.192v-1.969h-.192zm0 1.969c0 .202-.041.39-.124.566l.174.081a1.5 1.5 0 0 0 .142-.647h-.192zm-.125.568a1.532 1.532 0 0 1-.32.469l.136.136c.152-.153.272-.329.36-.528l-.176-.077zm-.319.468c-.135.13-.294.234-.478.313l.076.176c.204-.087.382-.204.535-.351l-.133-.138zm-.476.312c-.182.073-.377.11-.587.11v.191c.233 0 .453-.04.659-.123l-.072-.178zm-.587.11h-3.497v.191h3.497v-.192zm-3.497-4.495a.94.94 0 0 0-.755.342l.147.123a.75.75 0 0 1 .608-.273v-.192zm-.756.343a1.256 1.256 0 0 0-.271.817h.192c0-.28.077-.51.228-.696l-.149-.12zm-.271.817v1.777h.192v-1.778h-.192zm0 1.777c0 .318.089.592.271.817l.149-.121a1.063 1.063 0 0 1-.228-.696h-.192zm.272.818a.94.94 0 0 0 .755.341v-.191a.75.75 0 0 1-.608-.274l-.147.124zm.755.341h3.497v-.191h-3.497v.191zm3.497 0a.915.915 0 0 0 .747-.342l-.149-.121a.724.724 0 0 1-.598.272v.191zm.746-.341c.188-.224.28-.499.28-.818h-.192c0 .28-.079.509-.235.694l.147.124zm.28-.818v-1.778h-.192v1.778h.192zm0-1.778c0-.318-.092-.593-.28-.817l-.147.123c.156.186.235.415.235.695h.192zm-.279-.816a.915.915 0 0 0-.747-.343v.192c.256 0 .452.091.598.272l.149-.12zm-.747-.343h-3.497v.192h3.497v-.192zm8.713 2.106.065.071-.065-.07zm0-1.827-.066.07h.001l.065-.07zm-5.026-.183v-.096h-.096v.096h.096zm0 4.494v.096h.096v-.096h-.096zm-.673 0h-.096v.096h.096v-.096zm0-5.084v-.096h-.096v.096h.096zm5.724.108-.039.088.003.001.036-.089zm.432.283-.068.068.003.003.065-.071zm.299.415-.088.04.002.003.086-.043zm0 1.778-.087-.042-.001.003.088.039zm-.299.415-.065-.07h-.001l.066.07zm-.432.274.034.09h.002l-.036-.09zm-4.17.092-.068.068.028.028h.04v-.096zm-.59-.59v-.096h-.232l.164.164.068-.068zm4.145.096c.277 0 .502-.06.655-.2l-.13-.141c-.102.093-.27.149-.525.149v.192zm.655-.2c.161-.148.23-.38.23-.669h-.192c0 .265-.063.432-.168.528l.13.141zm.23-.669v-.631h-.192v.631h.192zm0-.631c0-.29-.069-.521-.23-.669l-.13.142c.105.096.168.263.168.527h.192zm-.229-.668c-.152-.145-.378-.209-.656-.209v.192c.254 0 .421.058.524.156l.132-.139zm-.656-.209h-4.436v.192h4.436v-.192zm-4.532.096v4.494h.192V72.74h-.192zm.096 4.398h-.673v.192h.673v-.192zm-.577.096V72.15h-.192v5.084h.192zm-.096-4.988h5.209v-.192H249.2v.192zm5.209 0c.17 0 .328.034.476.1l.078-.175a1.338 1.338 0 0 0-.554-.117v.192zm.479.102c.155.061.288.148.4.26l.136-.135a1.379 1.379 0 0 0-.464-.304l-.072.178zm.403.264c.118.107.21.235.276.383l.176-.078a1.356 1.356 0 0 0-.322-.447l-.13.142zm.278.387a1 1 0 0 1 .106.456h.192a1.2 1.2 0 0 0-.126-.542l-.172.086zm.106.456v.747h.192v-.747h-.192zm0 .747c0 .18-.036.344-.107.49l.173.084c.085-.175.126-.367.126-.574h-.192zm-.108.493a1.133 1.133 0 0 1-.276.383l.13.142c.137-.125.244-.275.322-.447l-.176-.078zm-.277.385a1.246 1.246 0 0 1-.402.254l.072.178c.176-.07.331-.168.462-.293l-.132-.14zm-.4.254a1.342 1.342 0 0 1-.481.085v.192c.193 0 .377-.033.549-.098l-.068-.18zm-.481.085h-3.655v.192h3.655v-.192zm-3.587.028-.59-.59-.136.136.59.59.136-.136zm-.658-.426h4.145v-.192h-4.145v.192zm14.545-2.87h.096v-.097h-.096v.096zm0 5.083v.096h.096v-.096h-.096zm-.673 0h-.096v.096h.096v-.096zm0-4.477h.096v-.325l-.176.273.08.052zm-2.899 4.477v.096h.052l.028-.043-.08-.053zm-.424 0-.08.053.028.043h.052v-.096zm-2.899-4.477.081-.052-.177-.273v.325h.096zm0 4.477v.096h.096v-.096h-.096zm-.673 0h-.096v.096h.096v-.096zm0-5.084v-.096h-.096v.096h.096zm.98 0 .081-.052-.029-.044h-.052v.096zm2.808 4.328-.08.053.08.124.081-.124-.081-.053zm2.8-4.328v-.096h-.053l-.028.044.081.052zm.884 0v5.084h.192V72.15h-.192zm.096 4.988h-.673v.192h.673v-.192zm-.577.096v-4.477h-.192v4.477h.192zm-.176-4.53-2.9 4.478.161.105 2.9-4.478-.161-.104zm-2.819 4.434h-.424v.192h.424v-.192zm-.343.044-2.899-4.477-.162.104 2.9 4.478.161-.105zm-3.076-4.425v4.477h.192v-4.477h-.192zm.096 4.381h-.673v.192h.673v-.192zm-.577.096V72.15h-.192v5.084h.192zm-.096-4.988h.98v-.192h-.98v.192zm.9-.043 2.808 4.328.161-.105-2.808-4.328-.161.105zm2.969 4.328 2.799-4.329-.161-.104-2.799 4.328.161.105zm2.719-4.285h.98v-.192h-.98v.192zm8.161-.096h.096v-.096h-.096v.096zm0 .582v.096h.096v-.096h-.096zm-4.935 0v-.096h-.095v.096h.095zm0 1.661h-.095v.096h.095v-.096zm3.863 0h.096v-.096h-.096v.096zm0 .59v.096h.096v-.096h-.096zm-3.863 0v-.096h-.095v.096h.095zm0 1.67h-.095v.096h.095v-.096zm4.935 0h.096v-.096h-.096v.096zm0 .581v.096h.096v-.096h-.096zm-5.607 0h-.096v.096h.096v-.096zm0-5.084v-.096h-.096v.096h.096zm5.511 0v.582h.192v-.582h-.192zm.096.486h-4.935v.192h4.935v-.192zm-5.03.096v1.661h.191v-1.661h-.191zm.095 1.757h3.863v-.192h-3.863v.192zm3.767-.096v.59h.192v-.59h-.192zm.096.494h-3.863v.192h3.863v-.192zm-3.958.096v1.67h.191v-1.67h-.191zm.095 1.766h4.935v-.192h-4.935v.192zm4.839-.096v.581h.192v-.581h-.192zm.096.485h-5.607v.192h5.607v-.192zm-5.511.096V72.15h-.192v5.084h.192zm-.096-4.988h5.607v-.192h-5.607v.192zm13.594-.096h.096v-.096h-.096v.096zm0 5.084v.096h.096v-.096h-.096zm-.773 0-.062.073.027.023h.035v-.096zm-5.084-4.37.063-.072-.159-.136v.209h.096zm0 4.37v.096h.096v-.096h-.096zm-.673 0h-.096v.096h.096v-.096zm0-5.084v-.096h-.096v.096h.096zm.765 0 .062-.072-.027-.024h-.035v.096zm5.092 4.378-.063.073.159.136v-.209h-.096zm0-4.378v-.096h-.096v.096h.096zm.577 0v5.084h.192V72.15h-.192zm.096 4.988h-.773v.192h.773v-.192zm-.71.024-5.084-4.37-.125.146 5.084 4.37.125-.146zm-5.243-4.297v4.37h.192v-4.37h-.192zm.096 4.273h-.673v.192h.673v-.192zm-.577.096V72.15h-.192v5.084h.192zm-.096-4.988h.765v-.192h-.765v.192zm.702-.023 5.092 4.378.126-.145-5.093-4.378-.125.145zm5.251 4.305V72.15h-.192v4.378h.192zm-.096-4.282h.673v-.192h-.673v.192zm8.211-.096h.096v-.096h-.096v.096zm0 .59v.096h.096v-.096h-.096zm-2.841 0v-.096h-.096v.096h.096zm0 4.494v.096h.096v-.096h-.096zm-.673 0h-.096v.096h.096v-.096zm0-4.494h.096v-.096h-.096v.096zm-2.891 0h-.096v.096h.096v-.096zm0-.59v-.096h-.096v.096h.096zm6.309 0v.59h.192v-.59h-.192zm.096.494h-2.841v.192h2.841v-.192zm-2.937.096v4.494h.192V72.74h-.192zm.096 4.398h-.673v.192h.673v-.192zm-.577.096V72.74h-.192v4.494h.192zm-.096-4.59h-2.891v.192h2.891v-.192zm-2.795.096v-.59h-.192v.59h.192zm-.096-.494h6.405v-.192h-6.405v.192z" fill="#fff" mask="url(#a)"/><path d="m.078 42.113 30.64 17.69-21.074-1.12-9.566 18.81v-35.38z" fill="url(#b)"/><path d="M.076 42.117.063 77.522l9.574-18.826L.076 42.117z" fill="url(#c)"/><path fill-rule="evenodd" clip-rule="evenodd" d="M36.522 56.85c11.703-1.885 20.642-12.033 20.642-24.268C57.164 19.006 46.158 8 32.582 8S8 19.006 8 32.582c0 2.244.3 4.417.864 6.483L.029 33.964c-.02-.459-.029-.92-.029-1.382C0 14.587 14.588 0 32.582 0c17.995 0 32.582 14.588 32.582 32.582 0 16.661-12.506 30.402-28.642 32.346V56.85z" fill="url(#d)"/><path d="M123.775 51.114v13.87h-6.095V49.89a6.335 6.335 0 0 1 6.335-6.335h18.454v5.207h-16.342a2.352 2.352 0 0 0-2.352 2.352zM108.448 38.371H79.844v26.637h6.575V43.555h18.79c1.44 0 1.976 1.231 2.064 1.847v4.368c0 1.766-1.376 2.175-2.064 2.16H89.197a.384.384 0 0 0-.291.633l3.896 4.55h15.646c3.192 0 5.04-3.36 5.04-4.968v-8.327c0-3.782-3.216-5.327-5.04-5.447zM146.359 43.555h6.095v21.453h-6.095zM146.359 35.301h6.095v5.903h-6.095zM162.78 65.008h-5.975V43.555h32.252a6.719 6.719 0 0 1 6.719 6.719v14.734h-6.047v-13.87a2.352 2.352 0 0 0-2.352-2.352h-8.063v16.222h-6.119V48.786H162.78v16.222zM227.118 65.008v-5.142h-19.827a1.536 1.536 0 0 1-1.536-1.536v-7.954c0-.848.688-1.536 1.536-1.536h12.201c.848 0 1.536.688 1.536 1.536v2.004h-12.879a.384.384 0 0 0-.292.634l3.293 3.838h15.968v-7.298a6 6 0 0 0-5.999-6h-15.503a6 6 0 0 0-5.999 6v9.455a6 6 0 0 0 5.999 6h21.502z" fill="#fff"/><path fill="#E01446" d="M243.766 38.379h6.287v26.637h-6.287z"/><path fill="#DC1A49" d="M267.641 38.027h6.287v26.637h-6.287z"/><path fill="#DC1A49" d="M253.875 43.156v-5.135h33.788v5.135z"/><defs><linearGradient id="b" x1=".077" y1="42.116" x2="-1.242" y2="88.543" gradientUnits="userSpaceOnUse"><stop stop-color="#fff"/><stop offset="1" stop-color="#AAA"/></linearGradient><linearGradient id="c" x1="-2.742" y1="39.043" x2="-1.742" y2="85.543" gradientUnits="userSpaceOnUse"><stop stop-color="#fff"/><stop offset="1" stop-color="#354168"/></linearGradient><linearGradient id="d" x1="32.582" y1="0" x2="32.582" y2="65.163" gradientUnits="userSpaceOnUse"><stop stop-color="#CF2B52"/><stop offset="0" stop-color="#EE003B"/><stop offset="1" stop-color="#CF2B52"/></linearGradient></defs></svg>