<?xml version="1.0" standalone="no"?>
<!DOCTYPE svg PUBLIC "-//W3C//DTD SVG 20010904//EN"
 "http://www.w3.org/TR/2001/REC-SVG-20010904/DTD/svg10.dtd">
<svg version="1.0" xmlns="http://www.w3.org/2000/svg"
 width="318.000000pt" height="318.000000pt" viewBox="0 0 318.000000 318.000000"
 preserveAspectRatio="xMidYMid meet">

<g transform="translate(0.000000,318.000000) scale(0.100000,-0.100000)"
fill="#000000" stroke="none">
<path d="M0 1590 l0 -1590 1590 0 1590 0 0 1590 0 1590 -1590 0 -1590 0 0
-1590z m3140 0 l0 -1550 -1550 0 -1550 0 0 1550 0 1550 1550 0 1550 0 0 -1550z"/>
<path d="M2054 2594 c-19 -78 -37 -109 -59 -100 -9 3 -11 -2 -8 -15 3 -11 -2
-47 -12 -80 -9 -34 -15 -63 -12 -65 2 -2 14 30 26 71 21 75 22 75 56 75 l35 0
0 95 c0 52 -2 95 -4 95 -2 0 -12 -34 -22 -76z"/>
<path d="M1882 2601 c-8 -32 -7 -44 5 -58 14 -17 14 -17 5 1 -6 12 -6 32 0 53
5 19 7 37 5 39 -2 3 -9 -13 -15 -35z"/>
<path d="M1505 2331 c-27 -16 -79 -55 -114 -88 -57 -52 -63 -62 -57 -86 8 -34
48 -61 79 -53 13 3 44 24 69 46 26 22 50 40 55 40 11 1 63 105 63 128 0 20
-18 42 -34 42 -6 0 -33 -13 -61 -29z m65 -21 c-6 -11 -8 -25 -5 -30 10 -15
-21 -64 -65 -104 -55 -50 -79 -60 -113 -47 -43 17 -36 51 21 102 93 83 189
130 162 79z"/>
<path d="M2260 2331 c-12 -23 -9 -25 208 -160 72 -45 132 -86 132 -89 -1 -4
-79 -56 -175 -115 -156 -96 -174 -110 -165 -127 6 -10 13 -21 18 -23 4 -3 90
48 192 112 181 113 185 117 188 152 l3 37 -186 116 c-103 64 -191 116 -196
116 -4 0 -13 -9 -19 -19z"/>
<path d="M572 2228 l-182 -113 0 -41 0 -42 184 -115 c173 -108 186 -114 200
-98 9 10 16 20 16 23 0 3 -76 54 -170 113 -93 59 -172 110 -175 115 -3 4 68
54 157 109 90 55 169 105 177 110 10 6 11 13 2 30 -7 11 -15 21 -19 21 -4 0
-89 -51 -190 -112z"/>
<path d="M1664 2241 c-44 -32 -94 -74 -111 -93 l-33 -33 20 -33 c36 -59 72
-56 149 14 28 25 51 42 51 37 0 -10 22 27 51 86 25 51 18 74 -23 79 -18 2 -48
-14 -104 -57z m110 7 c-5 -7 -7 -23 -5 -35 3 -28 -85 -125 -130 -143 -41 -17
-79 0 -79 35 0 41 190 188 214 165 4 -5 5 -14 0 -22z"/>
<path d="M1936 2264 c-4 -14 -5 -28 -3 -31 3 -2 8 8 11 23 4 14 5 28 3 31 -3
2 -8 -8 -11 -23z"/>
<path d="M1861 2189 c-12 -16 -24 -42 -27 -58 -5 -22 -20 -38 -63 -65 -31 -19
-79 -58 -108 -87 -51 -51 -52 -52 -37 -80 24 -48 49 -54 97 -26 23 14 51 34
61 46 11 12 24 21 30 21 11 1 41 56 62 118 l12 34 -25 -24 -26 -23 7 44 c8 53
33 104 49 98 7 -2 14 -17 17 -33 l6 -29 7 25 c13 47 9 65 -17 66 -16 1 -31 -8
-45 -27z m-61 -180 c0 -5 7 -6 15 -3 23 9 18 -15 -10 -52 -51 -66 -134 -93
-157 -51 -8 15 0 28 44 72 45 45 57 52 81 48 15 -3 27 -9 27 -14z"/>
<path d="M870 891 c0 -66 3 -126 6 -135 4 -10 18 -16 35 -16 31 0 39 17 14 26
-12 5 -15 29 -15 125 0 112 -1 119 -20 119 -19 0 -20 -7 -20 -119z"/>
<path d="M1280 968 l0 -44 -39 4 c-32 3 -42 -1 -60 -23 -45 -58 -15 -165 48
-165 15 0 33 6 40 13 11 10 14 10 18 0 3 -7 13 -13 24 -13 19 0 19 7 17 133
-3 128 -4 132 -25 135 -21 3 -23 -1 -23 -40z m-5 -133 c0 -60 0 -60 -29 -60
-24 0 -31 5 -38 30 -4 18 -3 43 3 63 9 28 15 33 37 30 26 -3 27 -6 27 -63z"/>
<path d="M550 950 c0 -11 -7 -20 -15 -20 -8 0 -15 -7 -15 -15 0 -8 7 -15 15
-15 11 0 15 -13 15 -52 0 -74 17 -103 59 -103 39 0 54 22 19 27 -21 3 -23 9
-26 66 -3 57 -1 62 18 62 11 0 20 7 20 15 0 8 -9 15 -20 15 -13 0 -20 7 -20
20 0 15 -7 20 -25 20 -18 0 -25 -5 -25 -20z"/>
<path d="M388 919 c-11 -6 -18 -22 -18 -40 0 -26 6 -33 45 -50 50 -22 57 -29
45 -48 -6 -10 -20 -12 -48 -7 -45 7 -64 -7 -33 -23 33 -18 89 -13 112 10 31
31 21 61 -31 86 -56 26 -59 48 -8 48 20 0 40 4 44 8 23 23 -73 37 -108 16z"/>
<path d="M692 838 c17 -51 35 -95 40 -97 12 -4 -22 -41 -39 -41 -7 0 -13 -9
-13 -20 0 -17 3 -18 27 -9 54 20 63 38 128 247 3 7 -5 12 -18 12 -21 0 -25 -9
-41 -75 -10 -41 -21 -73 -26 -70 -4 3 -16 36 -25 75 -15 62 -20 70 -40 70
l-24 0 31 -92z"/>
<path d="M981 904 c-31 -39 -29 -107 4 -139 27 -28 94 -35 114 -12 16 20 4 26
-36 20 -28 -5 -39 -2 -49 12 -23 31 -17 35 46 35 59 0 60 0 60 29 0 74 -94
112 -139 55z m93 -20 c11 -29 6 -34 -34 -34 -43 0 -45 2 -30 31 13 23 55 25
64 3z"/>
<path d="M2100 590 c0 -11 -7 -20 -15 -20 -8 0 -15 -7 -15 -15 0 -8 7 -15 15
-15 11 0 15 -13 15 -52 0 -74 17 -103 59 -103 39 0 54 22 19 27 -21 3 -23 9
-26 66 -3 57 -1 62 18 62 11 0 20 7 20 15 0 8 -9 15 -20 15 -13 0 -20 7 -20
20 0 15 -7 20 -25 20 -18 0 -25 -5 -25 -20z"/>
<path d="M385 545 c-19 -18 -25 -35 -25 -70 0 -35 6 -52 25 -70 25 -26 76 -33
104 -16 22 14 3 31 -28 25 -22 -5 -32 -1 -45 17 -9 13 -16 33 -16 44 0 11 7
31 16 44 13 18 23 22 45 17 31 -6 50 11 28 25 -28 17 -79 10 -104 -16z"/>
<path d="M555 545 c-19 -18 -25 -35 -25 -70 0 -59 32 -95 85 -95 52 0 85 36
85 93 0 63 -29 97 -81 97 -29 0 -47 -7 -64 -25z m95 -24 c26 -50 2 -115 -41
-109 -52 7 -48 128 5 128 15 0 30 -8 36 -19z"/>
<path d="M750 475 c0 -88 1 -95 20 -95 18 0 20 7 20 68 0 70 10 92 42 92 16 0
18 -10 18 -80 0 -78 1 -80 25 -80 23 0 24 3 27 77 3 67 6 78 22 81 27 6 36
-15 36 -90 0 -61 2 -68 20 -68 18 0 20 7 20 76 0 41 -5 84 -10 95 -13 23 -62
26 -80 4 -12 -14 -15 -14 -30 0 -20 18 -61 20 -78 3 -9 -9 -12 -9 -12 0 0 7
-9 12 -20 12 -19 0 -20 -7 -20 -95z"/>
<path d="M1050 436 c0 -129 1 -134 20 -129 16 4 20 14 20 43 l0 38 39 -5 c56
-8 81 20 81 90 0 67 -20 97 -64 97 -17 0 -37 -5 -44 -12 -9 -9 -12 -9 -12 0 0
7 -9 12 -20 12 -19 0 -20 -7 -20 -134z m108 92 c15 -15 16 -72 2 -99 -12 -21
-40 -25 -58 -7 -16 16 -16 90 0 106 7 7 19 12 28 12 9 0 21 -5 28 -12z"/>
<path d="M1285 545 c-19 -18 -25 -35 -25 -70 0 -59 32 -95 85 -95 52 0 85 36
85 93 0 63 -29 97 -81 97 -29 0 -47 -7 -64 -25z m95 -24 c26 -50 2 -115 -41
-109 -52 7 -48 128 5 128 15 0 30 -8 36 -19z"/>
<path d="M1480 475 c0 -88 2 -95 20 -95 17 0 19 8 22 71 3 75 17 99 52 86 13
-5 16 -21 16 -82 0 -68 2 -75 20 -75 18 0 20 7 20 83 0 51 -5 88 -12 95 -15
15 -53 16 -79 2 -13 -7 -19 -7 -19 0 0 5 -9 10 -20 10 -19 0 -20 -7 -20 -95z"/>
<path d="M1701 544 c-31 -39 -29 -107 4 -139 27 -28 94 -35 114 -12 16 20 4
26 -36 20 -28 -5 -39 -2 -49 12 -23 31 -17 35 46 35 59 0 60 0 60 29 0 46 -34
81 -80 81 -30 0 -43 -6 -59 -26z m93 -20 c11 -29 6 -34 -34 -34 -43 0 -45 2
-30 31 13 23 55 25 64 3z"/>
<path d="M1890 475 c0 -88 2 -95 20 -95 17 0 19 8 22 71 3 75 17 99 52 86 13
-5 16 -21 16 -82 0 -68 2 -75 20 -75 18 0 20 7 20 83 0 51 -5 88 -12 95 -15
15 -53 16 -79 2 -13 -7 -19 -7 -19 0 0 5 -9 10 -20 10 -19 0 -20 -7 -20 -95z"/>
<path d="M2238 559 c-11 -6 -18 -22 -18 -40 0 -26 6 -33 45 -50 50 -22 57 -29
45 -48 -6 -10 -20 -12 -48 -7 -45 7 -64 -7 -33 -23 33 -18 89 -13 112 10 31
31 21 61 -31 86 -56 26 -59 48 -8 48 20 0 40 4 44 8 23 23 -73 37 -108 16z"/>
</g>
</svg>
